<svg xmlns="http://www.w3.org/2000/svg" xmlns:xlink="http://www.w3.org/1999/xlink" width="794" zoomAndPan="magnify" viewBox="0 0 595.5 842.249979" height="1123" preserveAspectRatio="xMidYMid meet" version="1.0"><defs><clipPath id="ad171e80ca"><path d="M 0.015625 2 L 594.984375 2 L 594.984375 841.5 L 0.015625 841.5 Z M 0.015625 2 " clip-rule="nonzero"/></clipPath><clipPath id="de5bdffab6"><path d="M 0.015625 49.40625 L 123.875 49.40625 L 123.875 103.726562 L 0.015625 103.726562 Z M 0.015625 49.40625 " clip-rule="nonzero"/></clipPath><clipPath id="6f726cce1c"><path d="M 0.015625 0.40625 L 123.875 0.40625 L 123.875 54.726562 L 0.015625 54.726562 Z M 0.015625 0.40625 " clip-rule="nonzero"/></clipPath><clipPath id="9a8f4068c0"><rect x="0" width="124" y="0" height="55"/></clipPath><clipPath id="40b0229854"><path d="M 87 49 L 154 49 L 154 104 L 87 104 Z M 87 49 " clip-rule="nonzero"/></clipPath><clipPath id="526fcc0197"><path d="M 104.488281 44.707031 L 154.003906 64.292969 L 136.53125 108.460938 L 87.015625 88.875 Z M 104.488281 44.707031 " clip-rule="nonzero"/></clipPath><clipPath id="9fd0fcf9eb"><path d="M 116.847656 49.59375 L 153.921875 64.261719 L 124.089844 103.542969 L 87.015625 88.875 Z M 116.847656 49.59375 " clip-rule="nonzero"/></clipPath><clipPath id="fa65547ff8"><path d="M 0 0.554688 L 66.957031 0.554688 L 66.957031 54.746094 L 0 54.746094 Z M 0 0.554688 " clip-rule="nonzero"/></clipPath><clipPath id="97e8b43fbe"><path d="M 17.488281 -4.292969 L 67.003906 15.292969 L 49.53125 59.460938 L 0.015625 39.875 Z M 17.488281 -4.292969 " clip-rule="nonzero"/></clipPath><clipPath id="1dc6cba635"><path d="M 29.847656 0.59375 L 66.921875 15.261719 L 37.089844 54.542969 L 0.015625 39.875 Z M 29.847656 0.59375 " clip-rule="nonzero"/></clipPath><clipPath id="893289fbf4"><rect x="0" width="67" y="0" height="55"/></clipPath><clipPath id="5587e70acc"><path d="M 109.371094 49.40625 L 165.191406 49.40625 L 165.191406 67.246094 L 109.371094 67.246094 Z M 109.371094 49.40625 " clip-rule="nonzero"/></clipPath><clipPath id="27fc671da3"><path d="M 122.660156 49.40625 L 165.144531 49.40625 L 151.851562 67.246094 L 109.371094 67.246094 Z M 122.660156 49.40625 " clip-rule="nonzero"/></clipPath><clipPath id="ecca797b8c"><path d="M 0.371094 0.40625 L 56.191406 0.40625 L 56.191406 18.246094 L 0.371094 18.246094 Z M 0.371094 0.40625 " clip-rule="nonzero"/></clipPath><clipPath id="cff0da5531"><path d="M 13.660156 0.40625 L 56.144531 0.40625 L 42.851562 18.246094 L 0.371094 18.246094 Z M 13.660156 0.40625 " clip-rule="nonzero"/></clipPath><clipPath id="54833ce2ba"><rect x="0" width="57" y="0" height="19"/></clipPath><clipPath id="5c6d4d2a87"><path d="M 100.953125 14.832031 L 574.148438 14.832031 L 574.148438 41.257812 L 100.953125 41.257812 Z M 100.953125 14.832031 " clip-rule="nonzero"/></clipPath><clipPath id="6406c81134"><path d="M 0.953125 0.832031 L 474.148438 0.832031 L 474.148438 27.257812 L 0.953125 27.257812 Z M 0.953125 0.832031 " clip-rule="nonzero"/></clipPath><clipPath id="4970713b45"><rect x="0" width="475" y="0" height="28"/></clipPath><clipPath id="d88d462e13"><path d="M 555 14 L 589 14 L 589 42 L 555 42 Z M 555 14 " clip-rule="nonzero"/></clipPath><clipPath id="74042c299a"><path d="M 564.339844 12.542969 L 589 22.300781 L 580.589844 43.558594 L 555.929688 33.800781 Z M 564.339844 12.542969 " clip-rule="nonzero"/></clipPath><clipPath id="ac827f3547"><path d="M 570.496094 14.980469 L 588.96875 22.289062 L 574.402344 41.109375 L 555.929688 33.800781 Z M 570.496094 14.980469 " clip-rule="nonzero"/></clipPath><clipPath id="f7bc7bfb6c"><path d="M 0.839844 0.785156 L 34 0.785156 L 34 27.160156 L 0.839844 27.160156 Z M 0.839844 0.785156 " clip-rule="nonzero"/></clipPath><clipPath id="9a7fa08eaa"><path d="M 9.339844 -1.457031 L 34 8.300781 L 25.589844 29.558594 L 0.929688 19.800781 Z M 9.339844 -1.457031 " clip-rule="nonzero"/></clipPath><clipPath id="e45b1cb351"><path d="M 15.496094 0.980469 L 33.96875 8.289062 L 19.402344 27.109375 L 0.929688 19.800781 Z M 15.496094 0.980469 " clip-rule="nonzero"/></clipPath><clipPath id="d72af0db32"><rect x="0" width="34" y="0" height="28"/></clipPath><clipPath id="acd2c497ab"><path d="M 566.921875 14.832031 L 594.722656 14.832031 L 594.722656 23.511719 L 566.921875 23.511719 Z M 566.921875 14.832031 " clip-rule="nonzero"/></clipPath><clipPath id="c4d0e3bc29"><path d="M 573.542969 14.832031 L 594.710938 14.832031 L 588.085938 23.511719 L 566.921875 23.511719 Z M 573.542969 14.832031 " clip-rule="nonzero"/></clipPath><clipPath id="5696696df3"><path d="M 0.921875 0.832031 L 28.722656 0.832031 L 28.722656 9.511719 L 0.921875 9.511719 Z M 0.921875 0.832031 " clip-rule="nonzero"/></clipPath><clipPath id="08d517020d"><path d="M 7.542969 0.832031 L 28.710938 0.832031 L 22.085938 9.511719 L 0.921875 9.511719 Z M 7.542969 0.832031 " clip-rule="nonzero"/></clipPath><clipPath id="3a1455c444"><rect x="0" width="29" y="0" height="10"/></clipPath><clipPath id="59dd03a5ab"><path d="M 176 48 L 204 48 L 204 79 L 176 79 Z M 176 48 " clip-rule="nonzero"/></clipPath><clipPath id="1160f6334b"><path d="M 203.183594 48.992188 L 180.773438 78.210938 L 165.125 66.210938 L 187.535156 36.988281 Z M 203.183594 48.992188 " clip-rule="nonzero"/></clipPath><clipPath id="5182646745"><path d="M 176.335938 51.59375 L 180.78125 78.199219 L 203.183594 48.992188 Z M 176.335938 51.59375 " clip-rule="nonzero"/></clipPath><clipPath id="7b1f397213"><path d="M 0.257812 0.835938 L 27.355469 0.835938 L 27.355469 30.328125 L 0.257812 30.328125 Z M 0.257812 0.835938 " clip-rule="nonzero"/></clipPath><clipPath id="978b7fb8c8"><path d="M 27.183594 0.992188 L 4.773438 30.210938 L -10.875 18.210938 L 11.535156 -11.011719 Z M 27.183594 0.992188 " clip-rule="nonzero"/></clipPath><clipPath id="85b81443da"><path d="M 0.335938 3.59375 L 4.78125 30.199219 L 27.183594 0.992188 Z M 0.335938 3.59375 " clip-rule="nonzero"/></clipPath><clipPath id="483f993986"><rect x="0" width="28" y="0" height="31"/></clipPath><clipPath id="9e3592e7e0"><path d="M 145 49 L 182 49 L 182 77 L 145 77 Z M 145 49 " clip-rule="nonzero"/></clipPath><clipPath id="cdcf14b8e9"><path d="M 181.902344 76.5625 L 145.242188 75.125 L 146.285156 48.539062 L 182.941406 49.976562 Z M 181.902344 76.5625 " clip-rule="nonzero"/></clipPath><clipPath id="129f4c1970"><path d="M 164.617188 49.257812 L 145.25 75.125 L 181.902344 76.5625 Z M 164.617188 49.257812 " clip-rule="nonzero"/></clipPath><clipPath id="92ff272883"><path d="M 0.0859375 0.0742188 L 37 0.0742188 L 37 27.648438 L 0.0859375 27.648438 Z M 0.0859375 0.0742188 " clip-rule="nonzero"/></clipPath><clipPath id="c2428b7ec3"><path d="M 36.902344 27.5625 L 0.242188 26.125 L 1.285156 -0.460938 L 37.941406 0.976562 Z M 36.902344 27.5625 " clip-rule="nonzero"/></clipPath><clipPath id="27b376d578"><path d="M 19.617188 0.257812 L 0.25 26.125 L 36.902344 27.5625 Z M 19.617188 0.257812 " clip-rule="nonzero"/></clipPath><clipPath id="9c439545d7"><rect x="0" width="37" y="0" height="28"/></clipPath><clipPath id="acee0fa943"><path d="M 164.101562 49.164062 L 200.472656 49.164062 L 200.472656 75.539062 L 164.101562 75.539062 Z M 164.101562 49.164062 " clip-rule="nonzero"/></clipPath><clipPath id="ad9975674d"><path d="M 182.285156 75.539062 L 200.464844 49.164062 L 164.101562 49.164062 Z M 182.285156 75.539062 " clip-rule="nonzero"/></clipPath><clipPath id="64fcb1c1fd"><path d="M 0.101562 0.164062 L 36.472656 0.164062 L 36.472656 26.539062 L 0.101562 26.539062 Z M 0.101562 0.164062 " clip-rule="nonzero"/></clipPath><clipPath id="179f7985d7"><path d="M 18.285156 26.539062 L 36.464844 0.164062 L 0.101562 0.164062 Z M 18.285156 26.539062 " clip-rule="nonzero"/></clipPath><clipPath id="2bb2ab5f1e"><rect x="0" width="37" y="0" height="27"/></clipPath><clipPath id="cf0d0f2bfa"><path d="M 142.734375 57.597656 L 180.644531 57.597656 L 180.644531 78.203125 L 142.734375 78.203125 Z M 142.734375 57.597656 " clip-rule="nonzero"/></clipPath><clipPath id="f93f2a4c2a"><path d="M 161.703125 57.597656 L 142.765625 78.203125 L 180.644531 78.203125 Z M 161.703125 57.597656 " clip-rule="nonzero"/></clipPath><clipPath id="8f54ffc764"><path d="M 0.734375 0.597656 L 38.644531 0.597656 L 38.644531 21.203125 L 0.734375 21.203125 Z M 0.734375 0.597656 " clip-rule="nonzero"/></clipPath><clipPath id="eb1e40f7c8"><path d="M 19.703125 0.597656 L 0.765625 21.203125 L 38.644531 21.203125 Z M 19.703125 0.597656 " clip-rule="nonzero"/></clipPath><clipPath id="f0cef14483"><rect x="0" width="39" y="0" height="22"/></clipPath><clipPath id="76e24467e7"><path d="M 156 49 L 188 49 L 188 79 L 156 79 Z M 156 49 " clip-rule="nonzero"/></clipPath><clipPath id="e2904d07ad"><path d="M 156.570312 60.402344 L 187.859375 49.15625 L 196.375 72.855469 L 165.085938 84.097656 Z M 156.570312 60.402344 " clip-rule="nonzero"/></clipPath><clipPath id="97fc035948"><path d="M 180.71875 78.480469 L 187.835938 49.164062 L 156.570312 60.402344 Z M 180.71875 78.480469 " clip-rule="nonzero"/></clipPath><clipPath id="a78f954f07"><path d="M 0.355469 0.0742188 L 32 0.0742188 L 32 29.566406 L 0.355469 29.566406 Z M 0.355469 0.0742188 " clip-rule="nonzero"/></clipPath><clipPath id="5106ecd433"><path d="M 0.570312 11.402344 L 31.859375 0.15625 L 40.375 23.855469 L 9.085938 35.097656 Z M 0.570312 11.402344 " clip-rule="nonzero"/></clipPath><clipPath id="26e0960a1c"><path d="M 24.71875 29.480469 L 31.835938 0.164062 L 0.570312 11.402344 Z M 24.71875 29.480469 " clip-rule="nonzero"/></clipPath><clipPath id="872c8ca0ae"><rect x="0" width="32" y="0" height="30"/></clipPath><clipPath id="37f36b76cf"><path d="M 73 14 L 102 14 L 102 43 L 73 43 Z M 73 14 " clip-rule="nonzero"/></clipPath><clipPath id="a6b264a3d4"><path d="M 87.816406 1.03125 L 115.441406 28.65625 L 101.492188 42.601562 L 73.871094 14.980469 Z M 87.816406 1.03125 " clip-rule="nonzero"/></clipPath><clipPath id="a09a0f4a7e"><path d="M 101.628906 14.84375 L 101.492188 42.601562 L 73.871094 14.980469 Z M 101.628906 14.84375 " clip-rule="nonzero"/></clipPath><clipPath id="10e0c11c1f"><path d="M 0.871094 0.785156 L 28.683594 0.785156 L 28.683594 28.839844 L 0.871094 28.839844 Z M 0.871094 0.785156 " clip-rule="nonzero"/></clipPath><clipPath id="7a9d1663a5"><path d="M 14.816406 -12.96875 L 42.441406 14.65625 L 28.492188 28.601562 L 0.871094 0.980469 Z M 14.816406 -12.96875 " clip-rule="nonzero"/></clipPath><clipPath id="d9784f98b6"><path d="M 28.628906 0.84375 L 28.492188 28.601562 L 0.871094 0.980469 Z M 28.628906 0.84375 " clip-rule="nonzero"/></clipPath><clipPath id="bafc87b3be"><rect x="0" width="29" y="0" height="29"/></clipPath><clipPath id="e4ec57fad5"><path d="M 65 6 L 109 6 L 109 50 L 65 50 Z M 65 6 " clip-rule="nonzero"/></clipPath><clipPath id="5d44b9cac4"><path d="M 86.859375 71.253906 L 43.640625 28.035156 L 65.464844 6.214844 L 108.679688 49.429688 Z M 86.859375 71.253906 " clip-rule="nonzero"/></clipPath><clipPath id="44af78bc9c"><path d="M 65.25 49.644531 L 65.464844 6.214844 L 108.679688 49.429688 Z M 65.25 49.644531 " clip-rule="nonzero"/></clipPath><clipPath id="2e55cb9fef"><path d="M 0.238281 0.152344 L 43.878906 0.152344 L 43.878906 43.792969 L 0.238281 43.792969 Z M 0.238281 0.152344 " clip-rule="nonzero"/></clipPath><clipPath id="2353d740b4"><path d="M 21.859375 65.253906 L -21.359375 22.035156 L 0.464844 0.214844 L 43.679688 43.429688 Z M 21.859375 65.253906 " clip-rule="nonzero"/></clipPath><clipPath id="2b35fee377"><path d="M 0.25 43.644531 L 0.464844 0.214844 L 43.679688 43.429688 Z M 0.25 43.644531 " clip-rule="nonzero"/></clipPath><clipPath id="d2f1c60234"><rect x="0" width="44" y="0" height="44"/></clipPath><clipPath id="f49ba4bb22"><path d="M 0.015625 6.886719 L 66.171875 6.886719 L 66.171875 49.40625 L 0.015625 49.40625 Z M 0.015625 6.886719 " clip-rule="nonzero"/></clipPath><clipPath id="d2593fb654"><path d="M 0.015625 0.886719 L 66.171875 0.886719 L 66.171875 43.40625 L 0.015625 43.40625 Z M 0.015625 0.886719 " clip-rule="nonzero"/></clipPath><clipPath id="6eb2c2cc8c"><rect x="0" width="67" y="0" height="44"/></clipPath><clipPath id="108384cf80"><path d="M 0.015625 783.664062 L 247.863281 783.664062 L 247.863281 839.5 L 0.015625 839.5 Z M 0.015625 783.664062 " clip-rule="nonzero"/></clipPath><clipPath id="adbeee2db5"><path d="M 85.894531 783.664062 L 247.269531 939.84375 L -75.476562 939.84375 Z M 85.894531 783.664062 " clip-rule="nonzero"/></clipPath><clipPath id="e5d82b8d3f"><path d="M 0.015625 0.664062 L 247.476562 0.664062 L 247.476562 56.5 L 0.015625 56.5 Z M 0.015625 0.664062 " clip-rule="nonzero"/></clipPath><clipPath id="0db1cc8751"><path d="M 85.894531 0.664062 L 247.269531 156.84375 L -75.476562 156.84375 Z M 85.894531 0.664062 " clip-rule="nonzero"/></clipPath><clipPath id="f25ca0a658"><rect x="0" width="248" y="0" height="57"/></clipPath><clipPath id="7adfe9e4e5"><path d="M 0.015625 748.488281 L 182.804688 748.488281 L 182.804688 839.5 L 0.015625 839.5 Z M 0.015625 748.488281 " clip-rule="nonzero"/></clipPath><clipPath id="2289218442"><path d="M 20.835938 748.488281 L 182.210938 904.667969 L -140.539062 904.667969 Z M 20.835938 748.488281 " clip-rule="nonzero"/></clipPath><clipPath id="7255bd39da"><path d="M 0.015625 0.488281 L 182.253906 0.488281 L 182.253906 91.5 L 0.015625 91.5 Z M 0.015625 0.488281 " clip-rule="nonzero"/></clipPath><clipPath id="676cbd7dae"><path d="M 20.835938 0.488281 L 182.210938 156.667969 L -140.539062 156.667969 Z M 20.835938 0.488281 " clip-rule="nonzero"/></clipPath><clipPath id="d69072963d"><rect x="0" width="183" y="0" height="92"/></clipPath><clipPath id="e0b5638557"><path d="M 174 818 L 250 818 L 250 839.5 L 174 839.5 Z M 174 818 " clip-rule="nonzero"/></clipPath><clipPath id="083d636b1c"><path d="M 184.1875 815.523438 L 249.894531 842.324219 L 240.148438 866.214844 L 174.445312 839.414062 Z M 184.1875 815.523438 " clip-rule="nonzero"/></clipPath><clipPath id="70acd08e31"><path d="M 190.515625 818.101562 L 249.867188 842.3125 L 233.796875 863.625 L 174.445312 839.414062 Z M 190.515625 818.101562 " clip-rule="nonzero"/></clipPath><clipPath id="48fa9a079c"><path d="M 0.339844 0.0703125 L 75.871094 0.0703125 L 75.871094 21.5 L 0.339844 21.5 Z M 0.339844 0.0703125 " clip-rule="nonzero"/></clipPath><clipPath id="f4a541eed2"><path d="M 10.1875 -2.476562 L 75.894531 24.324219 L 66.148438 48.214844 L 0.445312 21.414062 Z M 10.1875 -2.476562 " clip-rule="nonzero"/></clipPath><clipPath id="e14acede48"><path d="M 16.515625 0.101562 L 75.867188 24.3125 L 59.796875 45.625 L 0.445312 21.414062 Z M 16.515625 0.101562 " clip-rule="nonzero"/></clipPath><clipPath id="9b52772227"><rect x="0" width="76" y="0" height="22"/></clipPath><clipPath id="ba579abd1d"><path d="M 186 830 L 262 830 L 262 839.5 L 186 839.5 Z M 186 830 " clip-rule="nonzero"/></clipPath><clipPath id="5d6836b04d"><path d="M 196.183594 827.515625 L 261.886719 854.316406 L 252.144531 878.210938 L 186.4375 851.410156 Z M 196.183594 827.515625 " clip-rule="nonzero"/></clipPath><clipPath id="f1b86aa95d"><path d="M 202.507812 830.097656 L 261.859375 854.304688 L 245.789062 875.617188 L 186.4375 851.410156 Z M 202.507812 830.097656 " clip-rule="nonzero"/></clipPath><clipPath id="f7ba78aafe"><path d="M 0.328125 0.0585938 L 75.863281 0.0585938 L 75.863281 9.5 L 0.328125 9.5 Z M 0.328125 0.0585938 " clip-rule="nonzero"/></clipPath><clipPath id="a714c7b06e"><path d="M 10.183594 -2.484375 L 75.886719 24.316406 L 66.144531 48.210938 L 0.4375 21.410156 Z M 10.183594 -2.484375 " clip-rule="nonzero"/></clipPath><clipPath id="324e3db5b3"><path d="M 16.507812 0.0976562 L 75.859375 24.304688 L 59.789062 45.617188 L 0.4375 21.410156 Z M 16.507812 0.0976562 " clip-rule="nonzero"/></clipPath><clipPath id="b8a3179859"><rect x="0" width="76" y="0" height="10"/></clipPath><clipPath id="6a0b38adc6"><path d="M 183.769531 818.011719 L 594.984375 818.011719 L 594.984375 839.5 L 183.769531 839.5 Z M 183.769531 818.011719 " clip-rule="nonzero"/></clipPath><clipPath id="e96a79624f"><path d="M 190.601562 818.011719 L 604.171875 818.011719 L 597.339844 843.8125 L 183.769531 843.8125 Z M 190.601562 818.011719 " clip-rule="nonzero"/></clipPath><clipPath id="59a316801b"><path d="M 0.769531 0.0117188 L 411.984375 0.0117188 L 411.984375 21.5 L 0.769531 21.5 Z M 0.769531 0.0117188 " clip-rule="nonzero"/></clipPath><clipPath id="7a8bfee894"><path d="M 7.601562 0.0117188 L 421.171875 0.0117188 L 414.339844 25.8125 L 0.769531 25.8125 Z M 7.601562 0.0117188 " clip-rule="nonzero"/></clipPath><clipPath id="f6d3fd73a2"><rect x="0" width="412" y="0" height="22"/></clipPath><clipPath id="639b09c9c7"><rect x="0" width="595" y="0" height="840"/></clipPath></defs><g clip-path="url(#ad171e80ca)"><g transform="matrix(1, 0, 0, 1, -0.000000000000000002, 2)"><g clip-path="url(#639b09c9c7)"><g clip-path="url(#de5bdffab6)"><g transform="matrix(1, 0, 0, 1, -0.000000000000000002, 49)"><g clip-path="url(#9a8f4068c0)"><g clip-path="url(#6f726cce1c)"><path fill="#326961" d="M 0.015625 0.40625 L 123.933594 0.40625 L 123.933594 54.726562 L 0.015625 54.726562 Z M 0.015625 0.40625 " fill-opacity="1" fill-rule="nonzero"/></g></g></g></g><g clip-path="url(#40b0229854)"><g clip-path="url(#526fcc0197)"><g clip-path="url(#9fd0fcf9eb)"><g transform="matrix(1, 0, 0, 1, 87, 49)"><g clip-path="url(#893289fbf4)"><g clip-path="url(#fa65547ff8)"><g clip-path="url(#97e8b43fbe)"><g clip-path="url(#1dc6cba635)"><path fill="#326961" d="M 17.488281 -4.292969 L 67.003906 15.292969 L 49.53125 59.460938 L 0.015625 39.875 Z M 17.488281 -4.292969 " fill-opacity="1" fill-rule="nonzero"/></g></g></g></g></g></g></g></g><g clip-path="url(#5587e70acc)"><g clip-path="url(#27fc671da3)"><g transform="matrix(1, 0, 0, 1, 109, 49)"><g clip-path="url(#54833ce2ba)"><g clip-path="url(#ecca797b8c)"><g clip-path="url(#cff0da5531)"><path fill="#326961" d="M 0.371094 0.40625 L 56.125 0.40625 L 56.125 18.246094 L 0.371094 18.246094 Z M 0.371094 0.40625 " fill-opacity="1" fill-rule="nonzero"/></g></g></g></g></g></g><g clip-path="url(#5c6d4d2a87)"><g transform="matrix(1, 0, 0, 1, 100, 14)"><g clip-path="url(#4970713b45)"><g clip-path="url(#6406c81134)"><path fill="#326961" d="M 0.953125 0.832031 L 474.160156 0.832031 L 474.160156 27.257812 L 0.953125 27.257812 Z M 0.953125 0.832031 " fill-opacity="1" fill-rule="nonzero"/></g></g></g></g><g clip-path="url(#d88d462e13)"><g clip-path="url(#74042c299a)"><g clip-path="url(#ac827f3547)"><g transform="matrix(1, 0, 0, 1, 555, 14)"><g clip-path="url(#d72af0db32)"><g clip-path="url(#f7bc7bfb6c)"><g clip-path="url(#9a7fa08eaa)"><g clip-path="url(#e45b1cb351)"><path fill="#326961" d="M 9.339844 -1.457031 L 34 8.300781 L 25.589844 29.558594 L 0.929688 19.800781 Z M 9.339844 -1.457031 " fill-opacity="1" fill-rule="nonzero"/></g></g></g></g></g></g></g></g><g clip-path="url(#acd2c497ab)"><g clip-path="url(#c4d0e3bc29)"><g transform="matrix(1, 0, 0, 1, 566, 14)"><g clip-path="url(#3a1455c444)"><g clip-path="url(#5696696df3)"><g clip-path="url(#08d517020d)"><path fill="#326961" d="M 0.921875 0.832031 L 28.722656 0.832031 L 28.722656 9.511719 L 0.921875 9.511719 Z M 0.921875 0.832031 " fill-opacity="1" fill-rule="nonzero"/></g></g></g></g></g></g><g clip-path="url(#59dd03a5ab)"><g clip-path="url(#1160f6334b)"><g clip-path="url(#5182646745)"><g transform="matrix(1, 0, 0, 1, 176, 48)"><g clip-path="url(#483f993986)"><g clip-path="url(#7b1f397213)"><g clip-path="url(#978b7fb8c8)"><g clip-path="url(#85b81443da)"><path fill="#faf243" d="M 27.183594 0.992188 L 4.773438 30.210938 L -10.875 18.210938 L 11.535156 -11.011719 Z M 27.183594 0.992188 " fill-opacity="1" fill-rule="nonzero"/></g></g></g></g></g></g></g></g><g clip-path="url(#9e3592e7e0)"><g clip-path="url(#cdcf14b8e9)"><g clip-path="url(#129f4c1970)"><g transform="matrix(1, 0, 0, 1, 145, 49)"><g clip-path="url(#9c439545d7)"><g clip-path="url(#92ff272883)"><g clip-path="url(#c2428b7ec3)"><g clip-path="url(#27b376d578)"><path fill="#faf243" d="M 36.902344 27.5625 L 0.242188 26.125 L 1.285156 -0.460938 L 37.941406 0.976562 Z M 36.902344 27.5625 " fill-opacity="1" fill-rule="nonzero"/></g></g></g></g></g></g></g></g><g clip-path="url(#acee0fa943)"><g clip-path="url(#ad9975674d)"><g transform="matrix(1, 0, 0, 1, 164, 49)"><g clip-path="url(#2bb2ab5f1e)"><g clip-path="url(#64fcb1c1fd)"><g clip-path="url(#179f7985d7)"><path fill="#faf243" d="M 0.101562 0.164062 L 36.472656 0.164062 L 36.472656 26.539062 L 0.101562 26.539062 Z M 0.101562 0.164062 " fill-opacity="1" fill-rule="nonzero"/></g></g></g></g></g></g><g clip-path="url(#cf0d0f2bfa)"><g clip-path="url(#f93f2a4c2a)"><g transform="matrix(1, 0, 0, 1, 142, 57)"><g clip-path="url(#f0cef14483)"><g clip-path="url(#8f54ffc764)"><g clip-path="url(#eb1e40f7c8)"><path fill="#faf243" d="M 38.644531 21.203125 L 0.734375 21.203125 L 0.734375 0.597656 L 38.644531 0.597656 Z M 38.644531 21.203125 " fill-opacity="1" fill-rule="nonzero"/></g></g></g></g></g></g><g clip-path="url(#76e24467e7)"><g clip-path="url(#e2904d07ad)"><g clip-path="url(#97fc035948)"><g transform="matrix(1, 0, 0, 1, 156, 49)"><g clip-path="url(#872c8ca0ae)"><g clip-path="url(#a78f954f07)"><g clip-path="url(#5106ecd433)"><g clip-path="url(#26e0960a1c)"><path fill="#faf243" d="M 0.570312 11.402344 L 31.859375 0.15625 L 40.375 23.855469 L 9.085938 35.097656 Z M 0.570312 11.402344 " fill-opacity="1" fill-rule="nonzero"/></g></g></g></g></g></g></g></g><g clip-path="url(#37f36b76cf)"><g clip-path="url(#a6b264a3d4)"><g clip-path="url(#a09a0f4a7e)"><g transform="matrix(1, 0, 0, 1, 73, 14)"><g clip-path="url(#bafc87b3be)"><g clip-path="url(#10e0c11c1f)"><g clip-path="url(#7a9d1663a5)"><g clip-path="url(#d9784f98b6)"><path fill="#326961" d="M 14.816406 -12.96875 L 42.441406 14.65625 L 28.492188 28.601562 L 0.871094 0.980469 Z M 14.816406 -12.96875 " fill-opacity="1" fill-rule="nonzero"/></g></g></g></g></g></g></g></g><g clip-path="url(#e4ec57fad5)"><g clip-path="url(#5d44b9cac4)"><g clip-path="url(#44af78bc9c)"><g transform="matrix(1, 0, 0, 1, 65, 6)"><g clip-path="url(#d2f1c60234)"><g clip-path="url(#2e55cb9fef)"><g clip-path="url(#2353d740b4)"><g clip-path="url(#2b35fee377)"><path fill="#faf243" d="M 21.859375 65.253906 L -21.359375 22.035156 L 0.464844 0.214844 L 43.679688 43.429688 Z M 21.859375 65.253906 " fill-opacity="1" fill-rule="nonzero"/></g></g></g></g></g></g></g></g><g clip-path="url(#f49ba4bb22)"><g transform="matrix(1, 0, 0, 1, -0.000000000000000002, 6)"><g clip-path="url(#6eb2c2cc8c)"><g clip-path="url(#d2593fb654)"><path fill="#faf243" d="M 0.015625 0.886719 L 66.121094 0.886719 L 66.121094 43.40625 L 0.015625 43.40625 Z M 0.015625 0.886719 " fill-opacity="1" fill-rule="nonzero"/></g></g></g></g><g clip-path="url(#108384cf80)"><g clip-path="url(#adbeee2db5)"><g transform="matrix(1, 0, 0, 1, -0.000000000000000002, 783)"><g clip-path="url(#f25ca0a658)"><g clip-path="url(#e5d82b8d3f)"><g clip-path="url(#0db1cc8751)"><path fill="#faf243" d="M -75.476562 0.664062 L 247.253906 0.664062 L 247.253906 156.84375 L -75.476562 156.84375 Z M -75.476562 0.664062 " fill-opacity="1" fill-rule="nonzero"/></g></g></g></g></g></g><g clip-path="url(#7adfe9e4e5)"><g clip-path="url(#2289218442)"><g transform="matrix(1, 0, 0, 1, -0.000000000000000002, 748)"><g clip-path="url(#d69072963d)"><g clip-path="url(#7255bd39da)"><g clip-path="url(#676cbd7dae)"><path fill="#326961" d="M -140.539062 0.488281 L 182.191406 0.488281 L 182.191406 156.667969 L -140.539062 156.667969 Z M -140.539062 0.488281 " fill-opacity="1" fill-rule="nonzero"/></g></g></g></g></g></g><g clip-path="url(#e0b5638557)"><g clip-path="url(#083d636b1c)"><g clip-path="url(#70acd08e31)"><g transform="matrix(1, 0, 0, 1, 174, 818)"><g clip-path="url(#9b52772227)"><g clip-path="url(#48fa9a079c)"><g clip-path="url(#f4a541eed2)"><g clip-path="url(#e14acede48)"><path fill="#326961" d="M 10.1875 -2.476562 L 75.894531 24.324219 L 66.148438 48.214844 L 0.445312 21.414062 Z M 10.1875 -2.476562 " fill-opacity="1" fill-rule="nonzero"/></g></g></g></g></g></g></g></g><g clip-path="url(#ba579abd1d)"><g clip-path="url(#5d6836b04d)"><g clip-path="url(#f1b86aa95d)"><g transform="matrix(1, 0, 0, 1, 186, 830)"><g clip-path="url(#b8a3179859)"><g clip-path="url(#f7ba78aafe)"><g clip-path="url(#a714c7b06e)"><g clip-path="url(#324e3db5b3)"><path fill="#326961" d="M 10.183594 -2.484375 L 75.886719 24.316406 L 66.144531 48.210938 L 0.4375 21.410156 Z M 10.183594 -2.484375 " fill-opacity="1" fill-rule="nonzero"/></g></g></g></g></g></g></g></g><g clip-path="url(#6a0b38adc6)"><g clip-path="url(#e96a79624f)"><g transform="matrix(1, 0, 0, 1, 183, 818)"><g clip-path="url(#f6d3fd73a2)"><g clip-path="url(#59a316801b)"><g clip-path="url(#7a8bfee894)"><path fill="#326961" d="M 0.769531 0.0117188 L 421.191406 0.0117188 L 421.191406 25.8125 L 0.769531 25.8125 Z M 0.769531 0.0117188 " fill-opacity="1" fill-rule="nonzero"/></g></g></g></g></g></g></g></g></g></svg>